<svg id="svg" xmlns="http://www.w3.org/2000/svg" xmlns:xlink="http://www.w3.org/1999/xlink" width="400" height="407.168458781362" viewBox="0, 0, 400,407.168458781362"><g id="svgg"><path id="path0" d="M212.186 63.103 C 162.512 71.707,96.151 144.723,65.287 224.737 C 47.976 269.612,51.526 292.524,80.230 321.190 C 121.670 362.577,154.433 359.201,211.368 307.680 C 217.374 302.244,222.509 298.051,222.778 298.361 C 223.047 298.671,224.653 303.148,226.348 308.309 C 233.339 329.600,249.286 349.821,259.086 349.821 C 272.783 349.821,276.452 341.686,285.917 290.319 C 288.678 275.339,293.859 252.437,297.430 239.427 C 305.377 210.478,305.677 204.225,299.460 197.144 L 294.976 192.038 300.299 180.393 C 317.570 142.612,314.370 123.386,286.136 95.303 C 258.422 67.738,237.650 58.693,212.186 63.103 M242.728 139.339 C 247.743 149.596,247.631 163.734,242.514 166.550 C 239.277 168.331,237.911 170.346,237.165 174.435 C 229.955 213.971,196.167 254.371,153.685 274.250 C 121.327 289.392,115.621 276.450,136.121 234.409 C 168.159 168.702,230.087 113.477,242.728 139.339 " stroke="none" fill="#e79b3d" fill-rule="evenodd"></path></g></svg>
